<svg width="16" height="16" viewBox="0 0 16 16" fill="none" xmlns="http://www.w3.org/2000/svg">
<path fill-rule="evenodd" clip-rule="evenodd" d="M8 16C10.1217 16 12.4997 15.5003 14 14C15.5003 12.4997 16 10.1217 16 8C16 5.87827 15.5003 3.50029 14 2C12.4997 0.499709 10.1217 0 8 0C5.87827 0 3.50029 0.499709 2 2C0.499709 3.50029 0 5.87827 0 8C0 10.1217 0.499709 12.4997 2 14C3.50029 15.5003 5.87827 16 8 16ZM9 5C9 4.73478 9.18754 4.18754 9 4C8.81246 3.81246 8.26522 4 8 4C7.73478 4 7.18754 3.81246 7 4C6.81246 4.18754 7 4.73478 7 5V7H5C4.73478 7 4.18754 6.81246 4 7C3.81246 7.18754 4 7.73478 4 8C4 8.26522 3.81246 8.81246 4 9C4.18754 9.18754 4.73478 9 5 9H7V11C7 11.2652 6.81246 11.8125 7 12C7.18754 12.1875 7.73478 12 8 12C8.26522 12 8.81246 12.1875 9 12C9.18754 11.8125 9 11.2652 9 11V9H11C11.2652 9 11.8125 9.18754 12 9C12.1875 8.81246 12 8.26522 12 8C12 7.73478 12.1875 7.18754 12 7C11.8125 6.81246 11.2652 7 11 7H9V5Z" fill="#2242A4"/>
</svg>
