<svg width="19" height="18" viewBox="0 0 19 18" fill="none" xmlns="http://www.w3.org/2000/svg">
<path d="M1.5 3C1.5 2.46957 1.71071 1.96086 2.08579 1.58579C2.46086 1.21071 2.96957 1 3.5 1H5.5C6.03043 1 6.53914 1.21071 6.91421 1.58579C7.28929 1.96086 7.5 2.46957 7.5 3V5C7.5 5.53043 7.28929 6.03914 6.91421 6.41421C6.53914 6.78929 6.03043 7 5.5 7H3.5C2.96957 7 2.46086 6.78929 2.08579 6.41421C1.71071 6.03914 1.5 5.53043 1.5 5V3ZM11.5 3C11.5 2.46957 11.7107 1.96086 12.0858 1.58579C12.4609 1.21071 12.9696 1 13.5 1H15.5C16.0304 1 16.5391 1.21071 16.9142 1.58579C17.2893 1.96086 17.5 2.46957 17.5 3V5C17.5 5.53043 17.2893 6.03914 16.9142 6.41421C16.5391 6.78929 16.0304 7 15.5 7H13.5C12.9696 7 12.4609 6.78929 12.0858 6.41421C11.7107 6.03914 11.5 5.53043 11.5 5V3ZM1.5 13C1.5 12.4696 1.71071 11.9609 2.08579 11.5858C2.46086 11.2107 2.96957 11 3.5 11H5.5C6.03043 11 6.53914 11.2107 6.91421 11.5858C7.28929 11.9609 7.5 12.4696 7.5 13V15C7.5 15.5304 7.28929 16.0391 6.91421 16.4142C6.53914 16.7893 6.03043 17 5.5 17H3.5C2.96957 17 2.46086 16.7893 2.08579 16.4142C1.71071 16.0391 1.5 15.5304 1.5 15V13ZM11.5 13C11.5 12.4696 11.7107 11.9609 12.0858 11.5858C12.4609 11.2107 12.9696 11 13.5 11H15.5C16.0304 11 16.5391 11.2107 16.9142 11.5858C17.2893 11.9609 17.5 12.4696 17.5 13V15C17.5 15.5304 17.2893 16.0391 16.9142 16.4142C16.5391 16.7893 16.0304 17 15.5 17H13.5C12.9696 17 12.4609 16.7893 12.0858 16.4142C11.7107 16.0391 11.5 15.5304 11.5 15V13Z" stroke="#484F56" stroke-width="2" stroke-linecap="round" stroke-linejoin="round"/>
</svg>
