<svg width="21" height="18" viewBox="0 0 21 18" fill="none" xmlns="http://www.w3.org/2000/svg">
<path d="M8.4668 9H12.4668M3.4668 5H17.4668H3.4668ZM3.4668 5C2.93636 5 2.42766 4.78929 2.05258 4.41421C1.67751 4.03914 1.4668 3.53043 1.4668 3C1.4668 2.46957 1.67751 1.96086 2.05258 1.58579C2.42766 1.21071 2.93636 1 3.4668 1H17.4668C17.9972 1 18.5059 1.21071 18.881 1.58579C19.2561 1.96086 19.4668 2.46957 19.4668 3C19.4668 3.53043 19.2561 4.03914 18.881 4.41421C18.5059 4.78929 17.9972 5 17.4668 5H3.4668ZM3.4668 5V15C3.4668 15.5304 3.67751 16.0391 4.05258 16.4142C4.42766 16.7893 4.93636 17 5.4668 17H15.4668C15.9972 17 16.5059 16.7893 16.881 16.4142C17.2561 16.0391 17.4668 15.5304 17.4668 15V5H3.4668Z" stroke="#6658DD" stroke-width="2" stroke-linecap="round" stroke-linejoin="round"/>
</svg>
