<svg width="21" height="21" viewBox="0 0 21 21" fill="none" xmlns="http://www.w3.org/2000/svg">
<path d="M6.77734 5.0957V1.0957V5.0957ZM14.7773 5.0957V1.0957V5.0957ZM5.77734 9.0957H15.7773H5.77734ZM3.77734 19.0957H17.7773C18.3078 19.0957 18.8165 18.885 19.1916 18.5099C19.5666 18.1348 19.7773 17.6261 19.7773 17.0957V5.0957C19.7773 4.56527 19.5666 4.05656 19.1916 3.68149C18.8165 3.30642 18.3078 3.0957 17.7773 3.0957H3.77734C3.24691 3.0957 2.7382 3.30642 2.36313 3.68149C1.98806 4.05656 1.77734 4.56527 1.77734 5.0957V17.0957C1.77734 17.6261 1.98806 18.1348 2.36313 18.5099C2.7382 18.885 3.24691 19.0957 3.77734 19.0957Z" stroke="#F672A7" stroke-width="2" stroke-linecap="round" stroke-linejoin="round"/>
</svg>
