<svg width="14" height="10" viewBox="0 0 14 10" fill="none" xmlns="http://www.w3.org/2000/svg">
<path fill-rule="evenodd" clip-rule="evenodd" d="M13.707 0.292799C13.8946 0.480335 14 0.734654 14 0.999829C14 1.265 13.8946 1.51932 13.707 1.70686L5.6998 9.7072C5.51211 9.89468 5.25757 10 4.99217 10C4.72677 10 4.47223 9.89468 4.28454 9.7072L0.280963 5.70703C0.0986418 5.51842 -0.00224262 5.26581 3.78364e-05 5.0036C0.00231829 4.74139 0.107581 4.49057 0.293155 4.30515C0.478729 4.11974 0.729765 4.01456 0.992197 4.01228C1.25463 4.01001 1.50746 4.1108 1.69623 4.29297L4.99217 7.58611L12.2917 0.292799C12.4794 0.10532 12.7339 0 12.9993 0C13.2647 0 13.5193 0.10532 13.707 0.292799Z" fill="white"/>
</svg>
