<svg width="14" height="14" viewBox="0 0 14 14" fill="none" xmlns="http://www.w3.org/2000/svg">
<path d="M7.06996 0.154297C3.24842 0.154297 0.153809 3.25584 0.153809 7.07737C0.153809 10.8989 3.24842 14.0005 7.06996 14.0005C10.8984 14.0005 14 10.8989 14 7.07737C14 3.25584 10.8984 0.154297 7.06996 0.154297ZM7.07689 12.6158C4.01689 12.6158 1.53842 10.1374 1.53842 7.07737C1.53842 4.01737 4.01689 1.53891 7.07689 1.53891C10.1369 1.53891 12.6153 4.01737 12.6153 7.07737C12.6153 10.1374 10.1369 12.6158 7.07689 12.6158ZM6.92458 3.61584H6.88304C6.60612 3.61584 6.38458 3.83737 6.38458 4.1143V7.38199C6.38458 7.6243 6.50919 7.85276 6.72381 7.97737L9.59689 9.70122C9.83227 9.83968 10.1369 9.77045 10.2753 9.53507C10.3101 9.47901 10.3332 9.41653 10.3433 9.35135C10.3535 9.28617 10.3503 9.21961 10.3342 9.15566C10.318 9.09171 10.2892 9.03166 10.2493 8.97909C10.2095 8.92652 10.1595 8.88251 10.1023 8.84968L7.42304 7.25737V4.1143C7.42304 3.83737 7.2015 3.61584 6.92458 3.61584Z" fill="#4F4F4F"/>
</svg>
