<svg width="20" height="20" viewBox="0 0 20 20" fill="none" xmlns="http://www.w3.org/2000/svg">
<path d="M8 3.03141H3C2.46957 3.03141 1.96086 3.24213 1.58579 3.6172C1.21071 3.99227 1 4.50098 1 5.03141V16.0314C1 16.5618 1.21071 17.0706 1.58579 17.4456C1.96086 17.8207 2.46957 18.0314 3 18.0314H14C14.5304 18.0314 15.0391 17.8207 15.4142 17.4456C15.7893 17.0706 16 16.5618 16 16.0314V11.0314M14.586 1.61741C14.7705 1.42639 14.9912 1.27403 15.2352 1.16921C15.4792 1.06439 15.7416 1.00922 16.0072 1.00691C16.2728 1.0046 16.5361 1.05521 16.7819 1.15577C17.0277 1.25633 17.251 1.40484 17.4388 1.59262C17.6266 1.78041 17.7751 2.00371 17.8756 2.2495C17.9762 2.4953 18.0268 2.75866 18.0245 3.02421C18.0222 3.28977 17.967 3.55221 17.8622 3.79622C17.7574 4.04023 17.605 4.26092 17.414 4.44541L8.828 13.0314H6V10.2034L14.586 1.61741Z" stroke="#858D95" stroke-width="2" stroke-linecap="round" stroke-linejoin="round"/>
</svg>
