<svg width="78" height="70" viewBox="0 0 78 70" fill="none" xmlns="http://www.w3.org/2000/svg">
<path d="M31.2426 34.8587H47.1954M11.3016 18.9059H67.1364H11.3016ZM11.3016 18.9059C9.18612 18.9059 7.15729 18.0656 5.66143 16.5697C4.16556 15.0738 3.3252 13.045 3.3252 10.9295C3.3252 8.81405 4.16556 6.78522 5.66143 5.28936C7.15729 3.79349 9.18612 2.95313 11.3016 2.95312H67.1364C69.2519 2.95313 71.2807 3.79349 72.7766 5.28936C74.2724 6.78522 75.1128 8.81405 75.1128 10.9295C75.1128 13.045 74.2724 15.0738 72.7766 16.5697C71.2807 18.0656 69.2519 18.9059 67.1364 18.9059H11.3016ZM11.3016 18.9059V58.7879C11.3016 60.9034 12.142 62.9322 13.6378 64.4281C15.1337 65.924 17.1625 66.7643 19.278 66.7643H59.16C61.2755 66.7643 63.3043 65.924 64.8002 64.4281C66.296 62.9322 67.1364 60.9034 67.1364 58.7879V18.9059H11.3016Z" stroke="#86AFFE" stroke-width="5" stroke-linecap="round" stroke-linejoin="round"/>
</svg>
