<svg width="18" height="15" viewBox="0 0 18 20" fill="none" xmlns="http://www.w3.org/2000/svg">
                                <path d="M12 15H6M12 15H17L16 14C15.8113 13.8113 15.1021 13.2466 15 13C14.8979 12.7534 15 12.2669 15 12V9C15.0002 7.75894 14.7163 7.01345 14 6C13.2837 4.98655 12.17 3.41396 11 3V3C11 2.46957 10.3751 2.37507 10 2C9.62493 1.62493 9.53043 1 9 1C8.46957 1 8.37507 1.62493 8 2C7.62493 2.37507 7 2.46957 7 3V3C4.67 3.824 3 6.388 3 9V12C3 12.538 2.381 13.619 2 14L1 15H6H12ZM12 15V16C12 16.7956 11.5626 17.4374 11 18C10.4374 18.5626 9.79565 19 9 19C8.20435 19 7.56261 18.5626 7 18C6.43739 17.4374 6 16.7956 6 16V15H12Z" stroke="#484F56" stroke-width="2" stroke-linecap="round" stroke-linejoin="round"/>
                                </svg>