<svg width="15" height="15" viewBox="0 0 20 20" fill="none" xmlns="http://www.w3.org/2000/svg">
<path d="M11 14H10V10H9M10 6V6M19 10C19 11.1819 18.4523 11.9081 18 13C17.5477 14.0919 16.8357 15.1643 16 16C15.1643 16.8357 14.0919 17.5477 13 18C11.9081 18.4523 11.1819 19 10 19C8.8181 19 8.09193 18.4523 7 18C5.90807 17.5477 4.83573 16.8357 4 16C3.16427 15.1643 2.45229 14.0919 2 13C1.54771 11.9081 1 11.1819 1 10C1 7.61305 2.31217 5.68783 4 4C5.68783 2.31217 7.61305 1 10 1C12.3869 1 14.3122 2.31217 16 4C17.6878 5.68783 19 7.61305 19 10Z" stroke="#484F56" stroke-width="2" stroke-linecap="round" stroke-linejoin="round"/>
</svg>
