<svg width="18" height="13"  viewBox="0 0 20 16" fill="none" xmlns="http://www.w3.org/2000/svg">
<path d="M1 4L9 9C9.32866 9.21928 9.6049 10 10 10C10.3951 10 10.6713 9.21928 11 9L19 4M3 15H17C17.5304 15 17.6249 14.3751 18 14C18.3751 13.6249 19 13.5304 19 13V3C19 2.46957 18.3751 2.37507 18 2C17.6249 1.62493 17.5304 1 17 1H3C2.46957 1 2.37507 1.62493 2 2C1.62493 2.37507 1 2.46957 1 3V13C1 13.5304 1.62493 13.6249 2 14C2.37507 14.3751 2.46957 15 3 15Z" stroke="#484F56" stroke-width="2" stroke-linecap="round" stroke-linejoin="round"/>
</svg>
