<svg width="25" height="22" viewBox="0 0 25 22" fill="none" xmlns="http://www.w3.org/2000/svg">
<path fill-rule="evenodd" clip-rule="evenodd" d="M24.9896 12.7939C24.8265 15.2422 22.9777 17.9156 19.3616 17.9156C17.7031 17.9156 16.8331 17.9156 16.8331 17.9156C16.2349 17.9156 15.7455 17.4372 15.7455 16.8181C15.7455 16.199 16.2349 15.7487 16.8331 15.7487C16.8331 15.7487 17.7031 15.6924 19.3616 15.6924C21.6183 15.6924 22.733 14.1165 22.8417 12.625C22.9505 11.0773 21.9989 9.36067 19.6879 9.02298C19.3888 8.9667 19.1169 8.79785 18.9538 8.54458C18.7907 8.29131 18.7363 7.95362 18.7907 7.64406C19.0897 6.32143 18.7635 5.28021 17.9206 4.80181C17.2137 4.37969 16.0718 4.40783 15.1474 5.33649C14.9027 5.58976 14.5492 5.70232 14.223 5.64604C13.8967 5.58976 13.5976 5.36463 13.4345 5.05508C11.8576 1.9877 9.43779 1.84699 7.83366 2.63494C6.28391 3.39475 5.06043 5.28021 6.01203 7.6722C6.12078 7.95362 6.12078 8.29131 5.98484 8.57272C5.8489 8.85413 5.6042 9.07926 5.33231 9.16368C2.0153 10.2049 2.09687 12.4562 2.17844 13.1316C2.36876 14.3698 3.32036 15.6361 4.78854 15.6361L8.18711 15.6643C8.78526 15.6643 9.27465 16.199 9.27465 16.8181C9.27465 17.4372 8.78526 18 8.18711 18L4.81573 17.9156C2.42313 17.9156 0.438368 16.002 0.0577279 13.4411C-0.241346 11.4713 0.574311 8.82599 3.61943 7.41893C2.91253 4.32341 4.59822 1.70628 6.88206 0.608778C9.22027 -0.545009 12.5101 -0.207315 14.6852 2.91635C16.0446 2.1284 17.6487 2.07212 18.981 2.86007C20.1229 3.53546 21.1561 4.94251 21.0473 7.0531C23.9293 7.95362 25.1256 10.5426 24.9896 12.7939ZM16.2105 13.4909C16.4211 13.7091 16.6842 13.8182 16.9474 13.8182C17.2105 13.8182 17.4737 13.7091 17.6842 13.4909C18.1053 13.0545 18.1053 12.3727 17.6842 11.9364L13.2368 7.3C13.0526 7.10909 12.7895 7 12.5 7C12.2105 7 11.9474 7.10909 11.7632 7.32727L7.31579 11.9636C6.89474 12.4 6.89474 13.0818 7.31579 13.5182C7.73684 13.9545 8.39474 13.9545 8.81579 13.5182L11.4474 10.7091L11.4737 20.9091C11.4737 21.5091 11.9474 22 12.5263 22C13.1053 22 13.5789 21.5091 13.5789 20.9091L13.5526 10.7364L16.2105 13.4909Z" fill="#98A6AD"/>
</svg>
