<svg width="20" height="21" viewBox="0 0 20 21" fill="none" xmlns="http://www.w3.org/2000/svg">
<path d="M15.9995 14L10.9995 18C10.8157 18.1804 11.2398 18.9023 10.9995 19C10.7593 19.0977 10.2596 19 9.99954 19C9.73943 19 9.23982 19.0977 8.99954 19C8.75926 18.9023 9.18337 18.1804 8.99954 18L3.99954 14C2.89117 12.9132 2.30531 11.5074 1.99954 10C1.69376 8.49257 2.39966 7.41995 2.99954 6C3.59942 4.58005 4.6962 2.85388 5.99954 2C7.30288 1.14612 8.43203 1 9.99954 1C11.567 1 12.6962 1.14612 13.9995 2C15.3029 2.85388 16.3997 4.58005 16.9995 6C17.5994 7.41995 18.3053 8.49257 17.9995 10C17.6938 11.5074 17.1079 12.9132 15.9995 14V14Z" stroke="#484F56" stroke-width="2" stroke-linecap="round" stroke-linejoin="round"/>
</svg>
