<svg width="24" height="18" viewBox="0 0 24 18" fill="none" xmlns="http://www.w3.org/2000/svg">
<path d="M21.3687 1.2669L21.3685 1.26702L9.21198 13.3688L2.72491 6.88175C2.47678 6.61579 2.13352 6.45865 1.76992 6.44472C1.40465 6.43072 1.04878 6.56239 0.780595 6.81078C0.51241 7.05917 0.353879 7.40392 0.339879 7.76919C0.325879 8.13446 0.457556 8.49033 0.705943 8.75852L0.705799 8.75865L0.71282 8.76566L9.03504 17.0657L9.21161 17.2418L9.38815 17.0656L23.2876 3.19948C23.2878 3.19933 23.2879 3.19919 23.2881 3.19904C23.4154 3.0726 23.5166 2.92221 23.5856 2.75654C23.6547 2.59067 23.6903 2.41277 23.6903 2.23309C23.6903 2.0534 23.6547 1.8755 23.5856 1.70963C23.5165 1.54386 23.4153 1.39339 23.2878 1.2669C23.0328 1.01339 22.6878 0.871094 22.3283 0.871094C21.9687 0.871094 21.6237 1.01339 21.3687 1.2669Z" fill="#0D6635" stroke="#0D6635" stroke-width="0.5"/>
</svg>
