<svg width="38" height="38" viewBox="0 0 38 38" fill="none" xmlns="http://www.w3.org/2000/svg">
<path d="M18.9995 0.972656C15.4339 0.972656 11.9484 2.02997 8.98377 4.01089C6.01912 5.9918 3.70845 8.80736 2.34397 12.1015C0.979491 15.3956 0.622481 19.0204 1.31809 22.5175C2.01369 26.0145 3.73067 29.2268 6.2519 31.748C8.77313 34.2692 11.9854 35.9862 15.4824 36.6818C18.9795 37.3774 22.6043 37.0204 25.8984 35.6559C29.1925 34.2915 32.0081 31.9808 33.989 29.0161C35.9699 26.0515 37.0272 22.566 37.0272 19.0004C37.0272 14.2192 35.1279 9.63374 31.747 6.25287C28.3662 2.87201 23.7807 0.972656 18.9995 0.972656ZM18.9995 34.306C15.9723 34.306 13.0131 33.4083 10.4962 31.7265C7.97917 30.0447 6.01742 27.6543 4.85898 24.8576C3.70053 22.0609 3.39743 18.9835 3.988 16.0145C4.57857 13.0455 6.03628 10.3183 8.1768 8.17777C10.3173 6.03725 13.0445 4.57954 16.0135 3.98897C18.9825 3.3984 22.0599 3.7015 24.8567 4.85995C27.6534 6.01839 30.0438 7.98014 31.7256 10.4971C33.4074 13.0141 34.305 15.9733 34.305 19.0004C34.305 23.0597 32.6925 26.9528 29.8221 29.8231C26.9518 32.6934 23.0588 34.306 18.9995 34.306Z" fill="#0D6635" stroke="#0D6635" stroke-width="0.5"/>
</svg>
