<svg width="22" height="17" viewBox="0 0 22 17" fill="none" xmlns="http://www.w3.org/2000/svg">
<path d="M14 8.03223C14 8.82788 13.6839 9.59094 13.1213 10.1535C12.5587 10.7162 11.7956 11.0322 11 11.0322C10.2044 11.0322 9.44129 10.7162 8.87868 10.1535C8.31607 9.59094 8 8.82788 8 8.03223C8 7.23658 8.31607 6.47351 8.87868 5.91091C9.44129 5.3483 10.2044 5.03223 11 5.03223C11.7956 5.03223 12.5587 5.3483 13.1213 5.91091C13.6839 6.47351 14 7.23658 14 8.03223V8.03223Z" stroke="#858D95" stroke-width="2" stroke-linecap="round" stroke-linejoin="round"/>
<path d="M1.45801 8.03223C2.73201 3.97523 6.52301 1.03223 11 1.03223C15.478 1.03223 19.268 3.97523 20.542 8.03223C19.268 12.0892 15.478 15.0322 11 15.0322C6.52301 15.0322 2.73201 12.0892 1.45801 8.03223Z" stroke="#858D95" stroke-width="2" stroke-linecap="round" stroke-linejoin="round"/>
</svg>

