<svg width="15" height="11" viewBox="0 0 15 11" fill="none" xmlns="http://www.w3.org/2000/svg">
<path fill-rule="evenodd" clip-rule="evenodd" d="M13.7746 0.699936C13.9552 0.880535 14.0566 1.12545 14.0566 1.38081C14.0566 1.63618 13.9552 1.88109 13.7746 2.06169L6.07022 9.76607C5.88962 9.94662 5.64471 10.048 5.38935 10.048C5.13398 10.048 4.88907 9.94662 4.70847 9.76607L0.856277 5.91388C0.680849 5.73225 0.58378 5.48898 0.585974 5.23647C0.588168 4.98396 0.689451 4.74242 0.868008 4.56386C1.04656 4.3853 1.28811 4.28402 1.54062 4.28183C1.79313 4.27963 2.03639 4.3767 2.21803 4.55213L5.38935 7.72345L12.4129 0.699936C12.5935 0.519393 12.8384 0.417969 13.0937 0.417969C13.3491 0.417969 13.594 0.519393 13.7746 0.699936Z" fill="white"/>
</svg>
