<svg width="20" height="20" viewBox="0 0 20 20" fill="none" xmlns="http://www.w3.org/2000/svg">
<path d="M7 6H13M8 6C8.39397 6 8.63602 5.84924 9 6C9.36398 6.15076 9.72142 6.72142 10 7C10.2786 7.27858 10.8492 7.63602 11 8C11.1508 8.36398 11 8.60603 11 9C11 9.39397 11.1508 9.63602 11 10C10.8492 10.364 10.2786 10.7214 10 11C9.72142 11.2786 9.36398 11.8492 9 12C8.63602 12.1508 8.39397 12 8 12H7L10 15M7 9H13M19 10C19 11.1819 18.4523 11.9081 18 13C17.5477 14.0919 16.8357 15.1643 16 16C15.1643 16.8357 14.0919 17.5477 13 18C11.9081 18.4523 11.1819 19 10 19C8.8181 19 8.09193 18.4523 7 18C5.90807 17.5477 4.83573 16.8357 4 16C3.16427 15.1643 2.45229 14.0919 2 13C1.54771 11.9081 1 11.1819 1 10C1 7.61305 2.31217 5.68783 4 4C5.68783 2.31217 7.61305 1 10 1C12.3869 1 14.3122 2.31217 16 4C17.6878 5.68783 19 7.61305 19 10Z" stroke="#484F56" stroke-width="2" stroke-linecap="round" stroke-linejoin="round"/>
</svg>
