<svg width="21" height="18" viewBox="0 0 21 18" fill="none" xmlns="http://www.w3.org/2000/svg">
<path d="M10.3798 11.1949V1.56445M6.52764 4.4536H3.6385C3.12767 4.4536 2.63776 4.65653 2.27654 5.01774C1.91533 5.37895 1.7124 5.86886 1.7124 6.3797V15.0471C1.7124 15.558 1.91533 16.0479 2.27654 16.4091C2.63776 16.7703 3.12767 16.9732 3.6385 16.9732H17.1212C17.632 16.9732 18.1219 16.7703 18.4831 16.4091C18.8443 16.0479 19.0473 15.558 19.0473 15.0471V6.3797C19.0473 5.86886 18.8443 5.37895 18.4831 5.01774C18.1219 4.65653 17.632 4.4536 17.1212 4.4536H14.232H6.52764ZM13.269 8.30579L10.3798 11.1949L13.269 8.30579ZM10.3798 11.1949L7.49069 8.30579L10.3798 11.1949Z" stroke="#858D95" stroke-width="1.9261" stroke-linecap="round" stroke-linejoin="round"/>
</svg>
