<svg width="144" height="144" viewBox="0 0 144 144" fill="none" xmlns="http://www.w3.org/2000/svg">
<path fill-rule="evenodd" clip-rule="evenodd" d="M72.2621 20C71.3087 20 70.3554 20.0374 69.4243 20.1198C68.237 20.2164 67.0559 20.3789 65.8864 20.6066C59.9521 21.7418 54.4236 24.4397 49.8651 28.4249L49.6864 28.5821C43.4233 34.0891 39.3674 41.6994 38.2756 49.9925C38.1415 51.0634 38.0521 52.1417 38 53.2426C38 53.3624 38 53.4822 38 53.6095L43.9586 59.6005L46.4166 62.0793L53.0008 68.6919V55.0324C53.0008 54.8527 53.0008 54.6804 53.0008 54.5007C53.0008 54.321 53.0008 54.1487 53.0008 53.969C53.0907 50.3324 54.2038 46.7959 56.2111 43.7693C56.7031 43.0281 57.243 42.3201 57.8273 41.65C58.3803 41.0306 58.9724 40.4478 59.6 39.9051C59.7163 39.7942 59.8382 39.6892 59.965 39.5906L60.4268 39.2087C64.2868 36.1734 69.1503 34.7276 74.0313 35.1643C78.9122 35.6009 83.4454 37.8874 86.7118 41.5601L106.524 61.4652V54.4483C106.497 45.3205 102.878 36.5745 96.4587 30.1202C90.0393 23.6659 81.3405 20.0277 72.2621 20V20Z" fill="#407BFF"/>
<path fill-rule="evenodd" clip-rule="evenodd" d="M72.3291 38.3106C70.5164 38.3073 68.716 38.6111 67.0036 39.2092C66.6833 39.329 66.3556 39.4564 66.0428 39.5911C64.5283 40.2344 63.1215 41.1083 61.8718 42.1823C61.2475 42.7319 60.6649 43.3277 60.1289 43.9646C57.7887 46.6826 56.4201 50.1095 56.2408 53.7V71.9426L71.1374 86.9201V54.4488C71.135 54.204 71.2049 53.9639 71.3384 53.7591C71.4718 53.5543 71.6628 53.394 71.8871 53.2985C72.1113 53.2031 72.3587 53.1767 72.5979 53.2228C72.8371 53.269 73.0572 53.3855 73.2304 53.5577L84.5816 65.0155L86.8161 67.2621L106.524 87.0624V65.9665L91.2478 50.6221L83.7995 43.1333L83.6878 43.0285C82.196 41.5298 80.4249 40.3417 78.4758 39.5321C76.5267 38.7225 74.438 38.3074 72.3291 38.3106V38.3106Z" fill="#407BFF"/>
<path fill-rule="evenodd" clip-rule="evenodd" d="M72.2621 125C73.2155 125 74.1614 124.963 75.0999 124.88C82.3273 124.294 89.1774 121.394 94.6442 116.605L94.823 116.44C101.086 110.933 105.142 103.323 106.234 95.03C106.368 93.9591 106.457 92.8807 106.494 91.7799C106.494 91.6601 106.494 91.5402 106.494 91.4204L100.536 85.4294L98.063 82.9057L91.4787 76.2856V89.9676C91.4787 90.1473 91.4787 90.3196 91.4787 90.4993C91.4787 90.679 91.4787 90.8513 91.4787 91.031C91.3889 94.6676 90.2758 98.2041 88.2685 101.231C87.7764 101.972 87.2365 102.68 86.6522 103.35C86.1136 103.968 85.5365 104.551 84.9242 105.095L84.5592 105.417L84.0974 105.791C80.238 108.824 75.3761 110.269 70.4969 109.832C65.6177 109.396 61.0859 107.111 57.8199 103.44L38 83.5348V90.5517C38.0275 99.6795 41.6461 108.425 48.0655 114.88C54.485 121.334 63.1837 124.972 72.2621 125V125Z" fill="#407BFF"/>
<path fill-rule="evenodd" clip-rule="evenodd" d="M72.1802 106.69C73.9906 106.694 75.7886 106.39 77.4983 105.792C77.826 105.672 78.1463 105.552 78.4665 105.417C79.9798 104.769 81.3863 103.892 82.6376 102.819C83.2605 102.281 83.843 101.698 84.3805 101.074C86.7206 98.3557 88.0893 94.9288 88.2685 91.3383V73.0583L73.3719 58.0808V90.5296C73.3719 90.8593 73.2416 91.1755 73.0098 91.4086C72.7779 91.6417 72.4634 91.7727 72.1355 91.7727C71.8151 91.7728 71.5075 91.6464 71.2789 91.4207L59.9278 79.9854L57.6933 77.7388L38 57.9385V79.0343L53.2615 94.3788L60.7098 101.868L60.8141 101.972C62.3077 103.471 64.0802 104.658 66.0304 105.468C67.9806 106.277 70.0703 106.693 72.1802 106.69Z" fill="#407BFF"/>
</svg>
