<svg width="21" height="21" viewBox="0 0 21 21" fill="none" xmlns="http://www.w3.org/2000/svg">
<path d="M12.8281 8.17168C12.078 7.42179 11.0607 7.00053 10.0001 7.00053C8.93942 7.00053 7.92219 7.42179 7.17208 8.17168L3.17208 12.1717C2.79004 12.5407 2.48531 12.982 2.27567 13.4701C2.06604 13.9581 1.95569 14.483 1.95108 15.0141C1.94646 15.5452 2.04767 16.0719 2.24879 16.5635C2.44992 17.0551 2.74693 17.5017 3.1225 17.8773C3.49807 18.2528 3.94468 18.5498 4.43626 18.751C4.92785 18.9521 5.45457 19.0533 5.98569 19.0487C6.5168 19.0441 7.04168 18.9337 7.5297 18.7241C8.01771 18.5144 8.45909 18.2097 8.82808 17.8277L9.93008 16.7267M9.17208 11.8277C9.92219 12.5776 10.9394 12.9988 12.0001 12.9988C13.0607 12.9988 14.078 12.5776 14.8281 11.8277L18.8281 7.82768C19.5567 7.07327 19.9599 6.06286 19.9508 5.01407C19.9417 3.96528 19.521 2.96203 18.7794 2.2204C18.0377 1.47877 17.0345 1.05809 15.9857 1.04898C14.9369 1.03987 13.9265 1.44304 13.1721 2.17168L12.0721 3.27168" stroke="#484F56" stroke-width="2" stroke-linecap="round" stroke-linejoin="round"/>
</svg>
