<svg width="18" height="20" viewBox="0 0 18 20" fill="none" xmlns="http://www.w3.org/2000/svg">
<path d="M1.12504 0C0.826659 0 0.540501 0.123949 0.329516 0.34458C0.11853 0.565211 0 0.864451 0 1.17647C0 1.48849 0.11853 1.78773 0.329516 2.00836C0.540501 2.22899 0.826659 2.35294 1.12504 2.35294H2.49758L2.84072 3.79059C2.84413 3.80714 2.84788 3.82362 2.85197 3.84L4.37977 10.2282L3.37511 11.2776C1.95757 12.76 2.9611 15.2941 4.96592 15.2941H14.6255C14.9239 15.2941 15.21 15.1702 15.421 14.9495C15.632 14.7289 15.7505 14.4297 15.7505 14.1176C15.7505 13.8056 15.632 13.5064 15.421 13.2858C15.21 13.0651 14.9239 12.9412 14.6255 12.9412H4.96592L6.09095 11.7647H13.5005C13.7093 11.7646 13.914 11.7037 14.0917 11.5888C14.2693 11.4739 14.4129 11.3095 14.5062 11.1141L17.8813 4.05529C17.967 3.87598 18.0075 3.67674 17.9989 3.47648C17.9902 3.27622 17.9328 3.08159 17.8321 2.91105C17.7313 2.74051 17.5906 2.59973 17.4232 2.50205C17.2558 2.40438 17.0673 2.35305 16.8756 2.35294H4.81516L4.4664 0.890588C4.40545 0.63618 4.26496 0.410363 4.06724 0.249006C3.86953 0.0876496 3.62592 6.89463e-06 3.37511 0H1.12504ZM15.7505 18.2353C15.7505 18.7033 15.5727 19.1522 15.2563 19.4831C14.9398 19.8141 14.5105 20 14.063 20C13.6154 20 13.1862 19.8141 12.8697 19.4831C12.5532 19.1522 12.3754 18.7033 12.3754 18.2353C12.3754 17.7673 12.5532 17.3184 12.8697 16.9875C13.1862 16.6565 13.6154 16.4706 14.063 16.4706C14.5105 16.4706 14.9398 16.6565 15.2563 16.9875C15.5727 17.3184 15.7505 17.7673 15.7505 18.2353ZM5.06267 20C5.51024 20 5.93947 19.8141 6.25595 19.4831C6.57243 19.1522 6.75023 18.7033 6.75023 18.2353C6.75023 17.7673 6.57243 17.3184 6.25595 16.9875C5.93947 16.6565 5.51024 16.4706 5.06267 16.4706C4.6151 16.4706 4.18586 16.6565 3.86939 16.9875C3.55291 17.3184 3.37511 17.7673 3.37511 18.2353C3.37511 18.7033 3.55291 19.1522 3.86939 19.4831C4.18586 19.8141 4.6151 20 5.06267 20Z" fill="white"/>
</svg>
