<svg width="18" height="21" viewBox="0 0 18 21" fill="none" xmlns="http://www.w3.org/2000/svg">
<path d="M1 6.00093H17M16 6.00093L15 18.0009C14.9641 18.5032 15.3702 18.6578 15 19.0009C14.6298 19.3441 13.5059 20.0009 13 20.0009H5C4.49414 20.0009 3.37018 19.3441 3 19.0009C2.62982 18.6578 3.03592 18.5032 3 18.0009L2 6.00093H16ZM7 10.0009V16.0009V10.0009ZM11 10.0009V16.0009V10.0009ZM12 6.00093V3.00093C12 2.73694 12.1875 2.18761 12 2.00093C11.8125 1.81426 11.2652 2.00093 11 2.00093H7C6.73478 2.00093 6.18754 1.81426 6 2.00093C5.81246 2.18761 6 2.73694 6 3.00093V6.00093H12Z" stroke="#ACB4BC" stroke-width="2" stroke-linecap="round" stroke-linejoin="round"/>
</svg>
