<svg width="22" height="21" viewBox="0 0 22 21" fill="none" xmlns="http://www.w3.org/2000/svg">
<path d="M20 0H2C0.698661 0 0 0.757812 0 2V19C0 20.2422 0.698661 21 2 21H20C21.3013 21 22 20.2422 22 19V2C22 0.757812 21.3013 0 20 0ZM17 7C17.0098 7.13125 17 7.86875 17 8C17 12.0641 13.9223 17 8 17C6.17321 17 4.42411 15.8719 3 15C3.26027 15.0281 3.73482 15 4 15C5.50759 15 6.89509 14.825 8 14C6.58571 13.9719 5.40759 13.2188 5 12C5.49598 12.0703 5.48929 12.1266 6 12C4.52679 11.7141 4 10.4953 4 9C4.42723 9.22969 4.47455 8.98125 5 9C4.55825 8.71952 4.25021 8.44659 4 8C3.74979 7.55341 3.99913 7.50644 4 7C4 6.42812 3.72009 5.45469 4 5C5.58616 6.86562 8.32857 7.86875 11 8C10.5433 5.91406 12.0357 4 14 4C14.9281 4 15.4107 4.4 16 5C16.7268 4.86875 17.3813 5.35156 18 5C17.7594 5.7125 17.6679 5.62031 17 6C17.6482 5.93437 18.4205 6.23906 19 6C18.5629 6.61406 17.6286 6.56406 17 7Z" fill="#858D95"/>
</svg>
